<svg width="216" height="27" viewBox="0 0 216 27" fill="none" xmlns="http://www.w3.org/2000/svg">
<path d="M2.932 26.288C2.236 26.288 1.696 26.096 1.312 25.712C0.952 25.328 0.772 24.776 0.772 24.056V2.636C0.772 1.892 0.952 1.328 1.312 0.943999C1.696 0.535998 2.188 0.331998 2.788 0.331998C3.34 0.331998 3.748 0.439998 4.012 0.655998C4.3 0.847998 4.636 1.184 5.02 1.664L18.808 19.556H17.872V2.528C17.872 1.832 18.052 1.292 18.412 0.907999C18.796 0.523998 19.336 0.331998 20.032 0.331998C20.728 0.331998 21.256 0.523998 21.616 0.907999C21.976 1.292 22.156 1.832 22.156 2.528V24.128C22.156 24.8 21.988 25.328 21.652 25.712C21.316 26.096 20.86 26.288 20.284 26.288C19.732 26.288 19.288 26.18 18.952 25.964C18.64 25.748 18.292 25.4 17.908 24.92L4.156 7.028H5.056V24.056C5.056 24.776 4.876 25.328 4.516 25.712C4.156 26.096 3.628 26.288 2.932 26.288ZM39.0777 26.36C36.6297 26.36 34.4817 25.82 32.6337 24.74C30.8097 23.66 29.3937 22.148 28.3857 20.204C27.3777 18.236 26.8737 15.932 26.8737 13.292C26.8737 11.3 27.1617 9.512 27.7377 7.928C28.3137 6.32 29.1297 4.952 30.1857 3.824C31.2657 2.672 32.5497 1.796 34.0377 1.196C35.5497 0.571999 37.2297 0.259999 39.0777 0.259999C41.5497 0.259999 43.6977 0.799999 45.5217 1.88C47.3457 2.936 48.7617 4.436 49.7697 6.38C50.7777 8.324 51.2817 10.616 51.2817 13.256C51.2817 15.248 50.9937 17.048 50.4177 18.656C49.8417 20.264 49.0137 21.644 47.9337 22.796C46.8777 23.948 45.5937 24.836 44.0817 25.46C42.5937 26.06 40.9257 26.36 39.0777 26.36ZM39.0777 22.4C40.6377 22.4 41.9577 22.04 43.0377 21.32C44.1417 20.6 44.9817 19.556 45.5577 18.188C46.1577 16.82 46.4577 15.188 46.4577 13.292C46.4577 10.412 45.8097 8.18 44.5137 6.596C43.2417 5.012 41.4297 4.22 39.0777 4.22C37.5417 4.22 36.2217 4.58 35.1177 5.3C34.0137 5.996 33.1617 7.028 32.5617 8.396C31.9857 9.74 31.6977 11.372 31.6977 13.292C31.6977 16.148 32.3457 18.38 33.6417 19.988C34.9377 21.596 36.7497 22.4 39.0777 22.4ZM58.4153 26C57.6233 26 57.0113 25.796 56.5793 25.388C56.1713 24.956 55.9673 24.344 55.9673 23.552V3.068C55.9673 2.276 56.1713 1.676 56.5793 1.268C57.0113 0.835999 57.6233 0.619998 58.4153 0.619998H65.3993C69.6473 0.619998 72.9233 1.712 75.2273 3.896C77.5553 6.08 78.7193 9.212 78.7193 13.292C78.7193 15.332 78.4193 17.144 77.8193 18.728C77.2433 20.288 76.3793 21.608 75.2273 22.688C74.0993 23.768 72.7073 24.596 71.0513 25.172C69.4193 25.724 67.5353 26 65.3993 26H58.4153ZM60.5753 22.184H65.1113C66.5993 22.184 67.8833 22.004 68.9633 21.644C70.0673 21.26 70.9793 20.708 71.6993 19.988C72.4433 19.244 72.9953 18.32 73.3553 17.216C73.7153 16.088 73.8953 14.78 73.8953 13.292C73.8953 10.316 73.1633 8.096 71.6993 6.632C70.2353 5.168 68.0393 4.436 65.1113 4.436H60.5753V22.184ZM85.8372 26C85.0452 26 84.4332 25.796 84.0012 25.388C83.5932 24.956 83.3892 24.344 83.3892 23.552V3.068C83.3892 2.276 83.5932 1.676 84.0012 1.268C84.4332 0.835999 85.0452 0.619998 85.8372 0.619998H98.6892C99.2892 0.619998 99.7452 0.775999 100.057 1.088C100.393 1.4 100.561 1.844 100.561 2.42C100.561 3.02 100.393 3.488 100.057 3.824C99.7452 4.136 99.2892 4.292 98.6892 4.292H87.8172V11.276H97.8972C98.5212 11.276 98.9892 11.432 99.3012 11.744C99.6132 12.056 99.7692 12.512 99.7692 13.112C99.7692 13.712 99.6132 14.168 99.3012 14.48C98.9892 14.792 98.5212 14.948 97.8972 14.948H87.8172V22.328H98.6892C99.2892 22.328 99.7452 22.484 100.057 22.796C100.393 23.108 100.561 23.564 100.561 24.164C100.561 24.764 100.393 25.22 100.057 25.532C99.7452 25.844 99.2892 26 98.6892 26H85.8372ZM113.266 26.36C112.21 26.36 111.154 26.276 110.098 26.108C109.042 25.964 108.046 25.736 107.11 25.424C106.174 25.088 105.334 24.68 104.59 24.2C104.158 23.912 103.858 23.564 103.69 23.156C103.522 22.748 103.462 22.352 103.51 21.968C103.582 21.56 103.738 21.212 103.978 20.924C104.242 20.612 104.566 20.42 104.95 20.348C105.334 20.276 105.754 20.384 106.21 20.672C107.266 21.296 108.382 21.752 109.558 22.04C110.734 22.328 111.97 22.472 113.266 22.472C115.162 22.472 116.542 22.16 117.406 21.536C118.27 20.888 118.702 20.06 118.702 19.052C118.702 18.212 118.39 17.552 117.766 17.072C117.166 16.592 116.122 16.196 114.634 15.884L110.674 15.056C108.394 14.576 106.69 13.772 105.562 12.644C104.458 11.492 103.906 9.98 103.906 8.108C103.906 6.932 104.146 5.864 104.626 4.904C105.106 3.944 105.778 3.116 106.642 2.42C107.53 1.724 108.574 1.196 109.774 0.835998C110.998 0.451998 112.342 0.259999 113.806 0.259999C115.246 0.259999 116.614 0.439999 117.91 0.799998C119.206 1.16 120.37 1.688 121.402 2.384C121.786 2.648 122.038 2.972 122.158 3.356C122.302 3.74 122.338 4.124 122.266 4.508C122.194 4.868 122.026 5.18 121.762 5.444C121.498 5.708 121.162 5.864 120.754 5.912C120.37 5.96 119.926 5.84 119.422 5.552C118.534 5.048 117.634 4.688 116.722 4.472C115.81 4.256 114.826 4.148 113.77 4.148C112.666 4.148 111.718 4.304 110.926 4.616C110.134 4.928 109.522 5.372 109.09 5.948C108.682 6.5 108.478 7.16 108.478 7.928C108.478 8.792 108.766 9.488 109.342 10.016C109.918 10.52 110.902 10.916 112.294 11.204L116.218 12.032C118.594 12.536 120.358 13.328 121.51 14.408C122.686 15.488 123.274 16.928 123.274 18.728C123.274 19.88 123.034 20.924 122.554 21.86C122.098 22.796 121.426 23.6 120.538 24.272C119.674 24.944 118.63 25.46 117.406 25.82C116.182 26.18 114.802 26.36 113.266 26.36ZM145.93 26.288C145.282 26.288 144.754 26.132 144.346 25.82C143.962 25.508 143.65 25.016 143.41 24.344L135.886 3.068C135.622 2.3 135.67 1.652 136.03 1.124C136.414 0.595998 137.05 0.331998 137.938 0.331998C138.586 0.331998 139.09 0.487998 139.45 0.799998C139.81 1.088 140.098 1.556 140.314 2.204L146.794 21.428H145.354L152.122 2.24C152.362 1.592 152.662 1.112 153.022 0.799998C153.382 0.487998 153.85 0.331998 154.426 0.331998C155.002 0.331998 155.458 0.487998 155.794 0.799998C156.13 1.112 156.418 1.604 156.658 2.276L163.21 21.428H161.95L168.538 2.204C168.754 1.58 169.042 1.112 169.402 0.799998C169.762 0.487998 170.254 0.331998 170.878 0.331998C171.646 0.331998 172.21 0.595998 172.57 1.124C172.93 1.652 172.978 2.3 172.714 3.068L165.118 24.38C164.878 25.028 164.566 25.508 164.182 25.82C163.798 26.132 163.282 26.288 162.634 26.288C161.986 26.288 161.47 26.132 161.086 25.82C160.702 25.508 160.39 25.016 160.15 24.344L153.886 6.488H154.714L148.378 24.38C148.138 25.028 147.826 25.508 147.442 25.82C147.082 26.132 146.578 26.288 145.93 26.288ZM179.385 26.288C178.641 26.288 178.065 26.084 177.657 25.676C177.273 25.244 177.081 24.656 177.081 23.912V2.708C177.081 1.94 177.273 1.352 177.657 0.943999C178.065 0.535998 178.641 0.331998 179.385 0.331998C180.129 0.331998 180.693 0.535998 181.077 0.943999C181.485 1.352 181.689 1.94 181.689 2.708V23.912C181.689 24.656 181.497 25.244 181.113 25.676C180.729 26.084 180.153 26.288 179.385 26.288ZM189.545 26.288C188.801 26.288 188.225 26.084 187.817 25.676C187.433 25.244 187.241 24.656 187.241 23.912V2.672C187.241 1.904 187.433 1.328 187.817 0.943999C188.225 0.535998 188.801 0.331998 189.545 0.331998C190.289 0.331998 190.853 0.535998 191.237 0.943999C191.645 1.328 191.849 1.904 191.849 2.672V11.852H191.921L202.253 1.484C202.637 1.1 203.021 0.811999 203.405 0.619998C203.789 0.427998 204.221 0.331998 204.701 0.331998C205.397 0.331998 205.889 0.511998 206.177 0.872C206.489 1.232 206.609 1.652 206.537 2.132C206.489 2.612 206.261 3.056 205.853 3.464L195.341 13.868L195.377 11.78L206.357 22.94C206.861 23.42 207.125 23.924 207.149 24.452C207.173 24.98 207.005 25.424 206.645 25.784C206.309 26.12 205.805 26.288 205.133 26.288C204.557 26.288 204.089 26.168 203.729 25.928C203.393 25.688 202.997 25.34 202.541 24.884L191.921 14.264H191.849V23.912C191.849 24.656 191.657 25.244 191.273 25.676C190.889 26.084 190.313 26.288 189.545 26.288ZM213.486 26.288C212.742 26.288 212.166 26.084 211.758 25.676C211.374 25.244 211.182 24.656 211.182 23.912V2.708C211.182 1.94 211.374 1.352 211.758 0.943999C212.166 0.535998 212.742 0.331998 213.486 0.331998C214.23 0.331998 214.794 0.535998 215.178 0.943999C215.586 1.352 215.79 1.94 215.79 2.708V23.912C215.79 24.656 215.598 25.244 215.214 25.676C214.83 26.084 214.254 26.288 213.486 26.288Z" fill="white"/>
</svg>