<svg width="203" height="43" viewBox="0 0 203 43" fill="none" xmlns="http://www.w3.org/2000/svg">
<path d="M9.04 6.64L5.92 10.9V18.94H21.58V24.58H5.92V43H0.4V8.98L6.28 0.999997H26.44V6.64H9.04ZM59.1944 43H36.5744L30.6344 35.14L35.0744 31.6L39.3344 37.36H56.4344L59.6144 33.1V29.62L56.1344 24.52L33.2144 19.12V0.939998H63.5744V6.58H38.7944V14.62L59.5544 19.48L65.2544 27.88V35.08L59.1944 43ZM117.266 17.15C115.726 22.0633 114.168 26.61 112.591 30.79C111.015 34.97 109.438 39.04 107.861 43H102.526C100.583 37.39 98.8597 31.4683 97.3564 25.235C95.8897 19.0017 94.5147 12.2183 93.2314 4.885H98.8414C99.3547 7.745 99.8864 10.605 100.436 13.465C100.986 16.325 101.555 19.1117 102.141 21.825C102.728 24.5017 103.315 27.0683 103.901 29.525C104.488 31.9817 105.093 34.255 105.716 36.345C107.183 32.495 108.741 28.2783 110.391 23.695C112.041 19.075 113.581 14.3083 115.011 9.395H119.631C121.061 14.3083 122.62 19.075 124.306 23.695C125.993 28.2783 127.57 32.495 129.036 36.345C129.623 34.2917 130.21 32.0367 130.796 29.58C131.383 27.1233 131.951 24.5567 132.501 21.88C133.088 19.1667 133.656 16.38 134.206 13.52C134.756 10.6233 135.288 7.745 135.801 4.885H141.246C139.926 12.2183 138.515 19.0017 137.011 25.235C135.545 31.4683 133.858 37.39 131.951 43H126.616C125.003 39.04 123.426 34.97 121.886 30.79C120.346 26.61 118.806 22.0633 117.266 17.15ZM147.501 4.885H152.836V43H147.501V4.885ZM190.486 4.885C189.349 6.13166 188.066 7.525 186.636 9.065C185.206 10.5683 183.703 12.1267 182.126 13.74C180.586 15.3167 179.046 16.875 177.506 18.415C175.966 19.955 174.518 21.385 173.161 22.705C174.738 23.805 176.406 25.1617 178.166 26.775C179.926 28.3883 181.649 30.1117 183.336 31.945C185.023 33.7783 186.599 35.6483 188.066 37.555C189.569 39.4617 190.816 41.2767 191.806 43H185.536C184.436 41.2767 183.171 39.5533 181.741 37.83C180.311 36.07 178.789 34.4017 177.176 32.825C175.599 31.2117 173.986 29.7267 172.336 28.37C170.723 27.0133 169.146 25.8583 167.606 24.905V43H162.271V4.885H167.606V21.715C168.889 20.505 170.301 19.1483 171.841 17.645C173.381 16.105 174.903 14.565 176.406 13.025C177.909 11.485 179.321 10.0183 180.641 8.625C181.998 7.195 183.134 5.94833 184.051 4.885H190.486ZM196.861 4.885H202.196V43H196.861V4.885Z" fill="black"/>
</svg>
