<svg version="1.2" xmlns="http://www.w3.org/2000/svg" viewBox="0 0 275 275" width="275" height="275">
	<title>undraw1-svg</title>
	<defs>
		<linearGradient id="g1" x2="1" gradientUnits="userSpaceOnUse" gradientTransform="matrix(-89.086,274.178,-274.57,-89.213,182.04,0)">
			<stop offset="0" stop-color="#382d63"/>
			<stop offset="1" stop-color="#193e26"/>
		</linearGradient>
	</defs>
	<style>
		.s0 { fill: url(#g1) } 
	</style>
	<path id="Layer" fill-rule="evenodd" class="s0" d="m137.9 0c3.2 0.7 6.8 1.2 10.2 2.3 10.5 3.4 21.2 5.6 31.8 8.5 10.8 3 21.5 6.3 32.3 9.2 7.5 2.1 15 4 22.5 6 2.8 0.7 5.5 1.6 8.2 2.3 1.8 0.3 2.6 1.4 3.1 3 1.1 3.2 2.3 6.4 3.2 9.7 2.6 9.7 5 19.5 7.6 29.2 2.2 8.4 4.4 16.8 6.8 25.2 2 7.3 4.5 14.5 6.2 21.9 1.3 5.9 2.5 11.9 4.8 17.5 1.2 3-0.6 5.7-1.3 8.3-3.7 14.2-7.9 28.1-11.3 42.3-1.4 5.9-3.6 11.7-5 17.5-1.8 7.4-4.5 14.6-6.2 21.9-1.2 5.6-2.8 11-4.2 16.5-0.9 3.1-2.8 4.2-5.9 5.2-8.5 2.5-17.3 4.3-25.8 6.9-8.3 2.6-16.9 4.3-25.2 6.9-8.9 2.8-18.2 4.2-26.9 7.2-7.9 2.8-16.1 4.2-24.2 6.5-2.2 0.6-5.2-0.6-7.7-1.3-8.8-2.3-17.5-4.9-26.3-7.3q-10.1-2.8-20.3-5.4c-9.2-2.4-18.3-5.2-27.4-7.6-8.5-2.2-16.9-4.2-25.2-7-2.3-0.7-3.5-2-3.7-3.7-1.6-10.2-5.9-19.6-7.9-29.7-1.7-8.6-5-16.7-6.8-25.2-1.6-7.3-4.4-14.2-6-21.4-1.9-8.7-4.3-17.2-7.1-25.7-0.5-1.7-0.1-3.8 0.4-5.6 1.5-5.4 3.5-10.8 4.9-16.3 1.4-5.1 2-10.5 3.8-15.5 2.9-8.2 4.2-16.9 6.7-25.2 2.6-8.5 4.8-17.2 7.1-25.8 1.5-5.7 3.3-11.3 4.6-17 0.8-3.8 2.4-5.7 6.6-6.5 6.8-1.3 13.4-3.9 20.2-5.8 8.4-2.4 16.8-4.5 25.2-6.8 8.8-2.4 17.5-5.1 26.3-7.3 7.2-1.7 14.3-3.7 21.4-6 3.2-1 6.7-1.2 10.5-1.9zm91.8 109.9c8.7 8.7 17 17 25.6 25.6 4.6-0.4 9.7 0.6 14.7-0.5-0.8-3.1-1.5-5.9-2.2-8.6-1.1-4.6-2.4-9.1-3.4-13.7-0.5-2.1-1.6-2.8-3.7-2.8-10.2 0-20.4 0-31 0zm33.5 54.5c2.2-8.3 4.5-16.5 6.9-25.4-4.3 0-8.3 0.2-12.3 0-3.7-0.3-6.1 2-8.3 4.2-3.5 3.5-6.3 7.6-10.1 10.7-3.7 3-6.2 7.1-10.3 10.5zm-258.6-25.4c2.6 9 5 17.3 7.3 25.6 6.1 0 11.7 0.1 17.3 0 5.6-0.1 11.3 0.4 17.3-0.3-2.2-1.9-4.3-3.2-5.5-5-1.2-1.8-2.6-3.2-4.4-4.3-1.3-0.8-2-2.3-3-3.4-0.9-1-1.7-2.3-2.8-2.9-1.9-1.1-3.1-2.6-4.4-4.3-2.4-3.3-5.5-5.7-10.2-5.4-3.6 0.2-7.3 0-11.6 0zm184.9 117.2q-0.2-0.2-0.4-0.4h-102.6c14.6 4.6 29.4 8.5 44.1 12.6 3.6 1 7.2 1.8 10.8 0.9 6.8-1.7 13.4-3.8 20.2-5.6 7.3-2 14.6-3.9 21.9-5.8q3-0.9 6-1.7zm2.4-237.5c-5.4-1.5-9.5-2.6-13.6-3.8q-19.5-5.3-39-10.7c-0.7-0.2-1.5-0.4-2.2-0.2-3.5 0.7-7.1 1.4-10.5 2.4-14.1 3.9-28.2 8-43.1 12.3zm70.3 87.5c-0.6-1.7-1-2.7-1.3-3.8-1.3-5.5-2.3-11.2-4-16.5-1.7-5.5-0.6-5.1-6.5-5.1q-23-0.1-45.9 0h-4c8.6 8.6 16.9 16.9 25.4 25.4zm-187.9-25.2c-14.2-0.7-50.6-0.5-55.4 0.4-0.9 4-1.9 8.1-2.6 12.2-0.8 4.2-3.4 7.9-3.4 12.5h36.1c8.6-8.5 16.8-16.7 25.3-25.1zm187.7 87.5h-36.9c-7.8 8.3-16.9 15.8-25.4 25.3h50.9c0.6 0 1.2-0.1 1.8 0 2.2 0.1 3.4-0.7 3.9-3.2 1.7-7.3 3.7-14.5 5.7-22.1zm-186.6 25c-3.5-3.7-6.5-7.7-10.4-10.5-2.3-1.7-3.2-4.4-5.5-5.7-2.6-1.5-4.4-3.5-6-6-1.5-2.4-3.8-3.3-6.9-3.2-10 0.2-20.1 0.1-30.2 0.1-1.1 0-2.2 0.1-3.7 0.1 2 7.3 4 14.2 5.8 21.1 1.1 4.3 1 4.4 5.1 4.4q25 0 50 0c0.5 0 1.1-0.2 1.8-0.3zm28.1-141.8h-76.4c-2.1 8.3-4.2 16.6-6.4 25.3h57.5c8.5-8.5 16.7-16.7 25.3-25.3zm144.2 0.2h-76c8.4 8.4 16.8 16.7 25.3 25.2 18.4 0 37.2 0 56 0 0.1 0 0.3-0.2 0.4-0.3 0.2-0.1 0.3-0.3 0.8-0.8-2.1-7.7-4.3-15.7-6.5-24.1zm-76.7 170.7c1.3 0.2 1.9 0.3 2.5 0.3q34.6 0 69.2 0c0.6 0 1.2 0 1.8 0 2 0.1 3.1-0.7 3.6-2.8 1.1-4.2 2.5-8.4 3.5-12.6 0.7-3.2 2.2-6.4 2.2-10h-58.2c-8.1 8.3-16.1 16.4-24.6 25.1zm-66.9 0.3c-1.9-2.3-2.9-4.3-4.5-5.3-2-1.3-3.6-2.7-4.7-4.9-0.5-0.9-1.5-1.9-2.5-2.3-2.1-1-3.3-2.5-4.3-4.4-0.4-0.9-1.2-1.5-1.9-2.2-2.3-2-4.5-3.9-7.1-6.2h-58.2c0.8 5.7 3.6 10.7 3.7 16.3 0 1.3 0.8 2.5 1.2 3.8 1.7 5.2 1.7 5.2 7.1 5.2q33.2 0 66.4 0zm141.6 4.4c-4.3-1.2-47.3-1.6-78.3-0.7-2.1 1.6-4.4 3.1-6.3 5-3.4 3.5-6.6 7.3-10 10.8-3.1 3.2-6.6 6.1-10 9.3 0.7 0.1 1.3 0.3 1.8 0.3q30.3 0.1 60.6 0c1.2 0 2.4 0 3.5-0.3 6.2-1.8 12.3-3.6 18.5-5.3 4.8-1.3 9.6-2.4 14.3-3.8 0.9-0.2 2-0.9 2.2-1.6 1.6-4.5 4.2-8.7 3.7-13.7zm-111.6 24.8c-9-8.9-17.3-17.1-25.6-25.5-16.4-0.8-74.7-0.4-79.5 0.6 0.8 3.3 2.1 6.6 2.2 9.9 0.2 2.9 1.3 4.3 3.7 5.1 4.2 1.4 8.3 2.9 12.5 3.9 6.1 1.6 12.2 2.6 18.2 4.7 2.4 0.8 5.2 1.2 7.8 1.2 18.1 0.1 36.1 0.1 54.1 0.1zm-1.1-229.2c-1.2-0.3-1.6-0.4-1.9-0.4q-30.3 0-60.6 0c-1 0-2-0.1-2.9 0.1-6.1 1.6-12.1 3.1-18.2 4.9-5.4 1.5-10.8 3.2-16.9 5.1-0.4 2.1-1.1 4.6-1.6 7.2-0.5 2.7-2.8 5.1-1.1 8.3 25.2 0 50.5 0 75.7 0 1.7 0 2.9-0.6 4.1-1.8 7.6-7.7 15.3-15.3 23.4-23.4zm112.7 24.9c0.3-5.9-1.7-10.9-3.6-15.3-3.5-1.1-6.4-2.1-9.3-2.9-7.5-2.1-15.1-3.8-22.5-6-2.5-0.8-4.8-1.1-7.4-1.1q-27.9 0-55.9 0h-4.5c8.5 8.6 16.9 16.9 25.3 25.3zm-220.6 89.4c2 2.2 3.8 4.3 5.8 6.3 0.9 1 2 1.7 3.1 2.6 0.9 0.7 1.8 1.4 2.6 2.2 3.7 4 7.5 7.9 11.5 11.6 3 2.8 5.7 6 8.8 8.9 1.8 1.6 3.5 3.4 5.1 5.2 2.6 2.8 5.1 5.6 8.2 7.9 0.3 0.2 0.6 0.6 0.7 0.9 0.7 2.2 2.4 3.4 4.4 4.3 0.8 0.5 1.4 1.3 2.1 2 3 3.3 5.7 7.1 9.2 9.9 2.4 2 4.3 4.3 6.4 6.4 2.2 2.3 5.2 3.8 6.7 7 0.3 0.5 1.3 0.7 1.8 1.3 1.6 1.4 3 2.9 4.5 4.4 0.9 0.9 1.9 1.7 2.8 2.6 3.3 3.2 6.7 6.3 9.6 9.7 1.4 1.6 2.3 3.4 4.4 4.4 1.2 0.5 2 1.8 2.9 2.8q1.9 2 3.9 4c1 1.1 2.2 2.2 3.2 3.3 1 1.1 1.8 2.4 3 3.8 0.9-7.1 0.7-218.2-0.1-222.1-36.8 36.8-73.7 73.7-110.6 110.6zm-6-1.9c8.9-8.9 17.2-17.1 25.3-25.2h-32.5c-2.4 8.2-4.8 16.5-7.3 25.2z"/>
</svg>