<svg version="1.2" xmlns="http://www.w3.org/2000/svg" viewBox="0 0 213 275" width="213" height="275">
	<title>undraw2-svg</title>
	<defs>
		<linearGradient id="g1" x2="1" gradientUnits="userSpaceOnUse" gradientTransform="matrix(-89.353,275,-212.265,-68.969,150.922,0)">
			<stop offset="0" stop-color="#382d63"/>
			<stop offset="1" stop-color="#193e26"/>
		</linearGradient>
	</defs>
	<style>
		.s0 { fill: url(#g1) } 
	</style>
	<path id="Layer" fill-rule="evenodd" class="s0" d="m0 137.3c4.3-5.5 8.6-11 12.7-16.5 5.2-6.8 10.3-13.7 15.5-20.5 4.5-6 9.3-11.9 13.9-17.8 3.9-5 7.7-10.1 11.6-15.2 3.8-5 7.7-10 11.5-15.1 2.3-3.1 4.6-6.2 6.9-9.2 3.7-4.8 7.5-9.5 11.2-14.3 3.2-4.1 6.3-8.3 9.4-12.4 3.4-4.5 6.7-9 10.2-13.4 1.1-1.2 2-3.1 4.6-2.9 5.8 7.9 11.8 15.9 17.9 23.9 3.6 4.8 7.6 9.4 11.3 14.2 3.8 4.9 7.5 9.9 11.2 14.8 4 5.2 7.9 10.3 11.9 15.5 3.1 4.1 6.2 8.3 9.3 12.4 3.8 4.9 7.7 9.7 11.5 14.7 3.9 5.1 7.8 10.3 11.8 15.5 3.8 5 7.7 10 11.6 15.1 2.8 3.7 5.6 7.5 8.5 11.5-35.1 45.8-70.1 91.5-105.2 137.4-2.7 0.4-3.8-2.1-5.1-3.7-7.8-10-15.5-20.1-23.1-30.2-7.4-9.7-14.6-19.4-21.9-29-7.8-10.2-15.6-20.4-23.5-30.6-6.8-8.9-13.6-17.9-20.4-26.7-3.8-4.8-7.6-9.5-11.4-14.3-0.7-0.9-1.2-2-1.9-3.2zm108-114.7c0.2 5-0.3 9.5 0.3 14h23.2c-3.9-5-7.5-9.6-10.9-14zm36.6 31.2c-3-4.1-6-8-8.8-11.9-1.2-1.8-2.7-2.4-4.9-2.4-6.4 0.2-12.8 0.1-19.2 0.1-1.2 0-2.3 0.1-3.6 0.2 0 4.8-0.2 9.4 0.1 14zm2 3.1h-38.5c0 2.5 0 4.7 0 6.9 0.1 2.4-0.2 4.7 0.2 7h49.1c-3.5-5.1-6.8-10-10.8-13.9zm-38.4 31.8h63c-0.5-0.8-0.7-1.3-1-1.8-2.4-3.1-5.1-6.1-7.2-9.5-1.4-2.2-3-2.9-5.5-2.8-15.5 0-31.1 0-46.6 0-0.9 0-1.7 0.1-2.7 0.2zm99.4 46.8c-2.8-3.5-5.1-6.2-7.1-8.6h-92.2v8.6zm-34.1-43.6h-65.1v13.9h76.2c-4-4.8-6.8-10.1-11.1-13.9zm24.4 31.1c-3.1-3.9-6.2-7.4-8.6-11.2-1.5-2.4-3.1-3.1-5.8-3.1-24 0.1-48.1 0-72.2 0.1-1 0-2 0.1-3.1 0.2 0.1 4.8-0.4 9.4 0.3 14zm-93.6 12.5v-129.1c-8.4 10.9-16.7 21.5-24.9 32.1-8.2 10.8-16.4 21.6-24.7 32.4-8.2 10.7-16.7 21.1-24.6 32-7.9 10.9-16.8 21.1-24.5 32.6zm4.1 4v129.2c3.9-5.1 7.5-9.9 11.2-14.7 4.4-5.7 9-11.4 13.4-17.1 4.6-6 9.1-12 13.6-18 4.3-5.8 8.7-11.6 13-17.3 2.1-2.9 4.3-5.6 6.5-8.4 3.7-4.8 7.5-9.6 11.2-14.4 3-3.9 5.9-8.1 8.9-12 5.6-7.2 11.2-14.2 16.7-21.3 1.4-1.9 2.8-3.8 4.4-6zm-0.1-120.9h9.6c-3.1-4.1-6.2-8.1-9.6-12.5z"/>
</svg>