<svg version="1.2" xmlns="http://www.w3.org/2000/svg" viewBox="0 0 264 275" width="264" height="275">
	<title>undraw3-svg</title>
	<defs>
		<linearGradient id="g1" x2="1" gradientUnits="userSpaceOnUse" gradientTransform="matrix(-158.505,274.538,-270.969,-156.444,211.238,0)">
			<stop offset="0" stop-color="#382d63"/>
			<stop offset="1" stop-color="#193e26"/>
		</linearGradient>
	</defs>
	<style>
		.s0 { fill: url(#g1) } 
	</style>
	<path id="Layer" fill-rule="evenodd" class="s0" d="m263.7 140.8c0.5 9.7-0.2 18.6-1.8 27.7-2 11.2-5.8 21.7-10.7 31.7-4.8 9.8-10.4 19.1-18 27.1-3.5 3.7-6.8 7.7-10.4 11.3-5.3 5.3-11.3 9.6-17.4 13.8-5.7 4-11.9 7-18 10-10.7 5.1-21.9 8.6-33.6 10.6-10.5 1.8-21.3 1.8-32 1.1-13.7-0.9-26.9-4.1-39.6-9.4-11.7-4.8-22.3-11.4-32.5-18.8-0.6-0.4-1.1-1-1.6-1.6-5.1-5.3-11.2-9.8-15.8-15.7-4.2-5.4-8.7-10.6-12.4-16.3-6.6-10.7-11.8-22.2-15.1-34.4q-2-7.4-3.2-14.9c-1.2-7.2-2.2-14.3-1.2-21.5 0.2-0.2 0.3-0.4 0.5-0.5 0.1-0.1 0.3-0.2 0.5-0.2q129.2-0.2 258.4-0.2c1.1 0 2.2 0.1 3.9 0.2zm-263.6-7.2c0.4-6-0.1-11.3 0.8-16.9 1.1-6.7 2.2-13.5 3.8-20.1 2.4-9.5 6.2-18.4 10.9-26.8 3.6-6.5 7.8-12.7 12.2-18.6 5-6.9 10.9-13 17.4-18.6 5.8-5.1 11.8-9.7 18.4-13.4 6.6-3.8 13.5-7.1 20.5-10.2 5.7-2.5 11.5-4.7 17.8-5.6 4.3-0.6 8.6-1.2 12.9-2.2 7.5-1.7 15.2-1.1 22.8-1 14.5 0.2 28.5 3.1 42.1 8.4 10.8 4.2 20.7 9.6 30 16.3 9.3 6.7 17.5 14.6 24.9 23.5 6.8 8.3 12.6 17.2 17.2 26.8 5.5 11.7 9.8 23.8 11 36.9 0.3 2.8 0.9 5.6 1.1 8.4 0.2 4.2 0 8.4 0 12.2-0.5 0.5-0.6 0.7-0.8 0.8-0.1 0.1-0.3 0.2-0.5 0.2q-129.1 0.1-258.2 0.2c-1.2 0-2.3-0.2-4.3-0.3zm249.4-3.6c0.2-0.8 0.4-1.2 0.4-1.5 0-15.1 0.1-30.2-0.1-45.4 0-2.7-1-5.6-2.3-8-2.4-4.8-5.1-9.4-8-13.8-2.5-3.9-5.5-7.6-8.8-12.1v80.8zm-24 0c0.1-0.9 0.3-1.5 0.3-2 0-26.8 0-53.7 0.1-80.5 0-2.1-0.6-3.7-2.1-5.1-3.1-2.9-5.9-6-9.1-8.8-2.3-2.1-5-3.9-8.1-6.3v102.7zm-24 0v-106.1c-3-1.7-5.9-3.5-8.9-5.1-3.2-1.7-6.4-3.2-10.1-5v116.2zm-66.2-126.1c-0.9 9.6-0.6 121.9 0.4 126.3 3 0 6 0.1 9.1 0 3.1-0.1 6.4 0.6 9.4-0.5v-123.8c-6.2-1-12.2-2.4-18.9-2zm43 125.4v-116.5c-6.4-3.3-12.9-5.4-20.3-6.1q0 59.3 0 118.5c0 1.3 0.1 2.7 0.2 4 0 0.2 0.1 0.3 0.3 0.5 0.1 0.1 0.2 0.2 0.4 0.5 5.7 0 11.5 0 17.2-0.1 0.5 0 1.1-0.3 2.2-0.8zm-48.2-125.5c-24 0.4-45.6 6.8-65.3 19-25.5 15.9-43.1 38.3-53.7 66.3-4 10.3-8 35-6.5 40.8h125.5zm129.7 126.2c1.3-9.2-1.7-27.9-5.9-38.1-0.8 9.7-0.5 33.9 0.4 38.1z"/>
</svg>