<svg width="213" height="275" viewBox="0 0 213 275" fill="none" xmlns="http://www.w3.org/2000/svg">
<path d="M108.156 18.6967H117.764C114.583 14.5407 111.539 10.56 108.156 6.13745V18.6967ZM108.012 22.5888C108.184 27.5605 107.733 32.1132 108.284 36.5739H131.464C127.613 31.5978 124.021 26.9583 120.638 22.5888H108.012ZM144.555 53.7984C141.524 49.7026 138.582 45.8459 135.782 41.8883C134.53 40.1198 133.037 39.499 130.888 39.5406C124.48 39.6637 118.067 39.5769 111.657 39.5964C110.512 39.5999 109.367 39.7239 108.107 39.7992C108.056 44.6291 107.876 49.1774 108.194 53.7984H144.555ZM146.496 56.9236H108.036C108.036 59.382 108.004 61.6066 108.045 63.8285C108.089 66.1638 107.848 68.5247 108.231 70.7847H157.328C153.885 65.6776 150.532 60.8325 146.496 56.9236ZM108.162 88.7062H171.118C170.682 87.8994 170.479 87.3707 170.151 86.9403C167.733 83.7709 165.072 80.7616 162.932 77.4177C161.528 75.2259 159.953 74.5369 157.475 74.5502C141.922 74.6361 126.37 74.5909 110.817 74.6006C109.966 74.6006 109.116 74.6981 108.162 74.7574V88.7062ZM207.51 135.521C204.701 132.098 202.479 129.39 200.472 126.944H108.273V135.521H207.51ZM173.395 91.9403H108.291V105.831H184.433C180.506 101.016 177.681 95.7412 173.395 91.9403ZM197.774 123.034C194.696 119.105 191.585 115.681 189.151 111.829C187.639 109.438 186.028 108.747 183.386 108.755C159.324 108.833 135.26 108.798 111.196 108.81C110.198 108.811 109.199 108.945 108.061 109.027C108.168 113.858 107.705 118.428 108.331 123.034L197.774 123.034ZM104.195 135.59V6.45003C95.7835 17.3108 87.5219 27.9067 79.3392 38.5638C71.0652 49.3378 62.902 60.1967 54.6298 70.9715C46.4452 81.633 37.9014 92.0315 30.0383 102.922C22.1472 113.853 13.2163 124.015 5.52838 135.59H104.195ZM108.245 139.545V268.778C112.161 263.649 115.797 258.836 119.49 254.067C123.922 248.344 128.442 242.688 132.855 236.95C137.44 230.986 141.952 224.966 146.479 218.956C150.825 213.187 155.135 207.389 159.487 201.623C161.623 198.794 163.81 196.005 165.989 193.209C169.712 188.432 173.489 183.696 177.164 178.883C180.207 174.899 183.066 170.775 186.13 166.809C191.64 159.676 197.255 152.625 202.799 145.52C204.221 143.697 205.544 141.798 207.198 139.545H108.245ZM0 137.328C4.27871 131.793 8.55613 126.342 12.7432 120.823C17.9157 114.006 22.9593 107.091 28.1591 100.295C32.7413 94.3057 37.491 88.444 42.1121 82.484C46.0042 77.4646 49.8131 72.3823 53.6663 67.3327C57.5177 62.2866 61.3894 57.2566 65.2266 52.1999C67.5459 49.1438 69.7722 46.0177 72.119 42.9837C75.8287 38.1883 79.635 33.4673 83.342 28.6701C86.5026 24.5805 89.5765 20.4236 92.6973 16.303C96.0846 11.8326 99.3984 7.3002 102.927 2.94317C103.964 1.66437 104.873 -0.218352 107.462 0.0207187C113.343 7.86342 119.295 15.9063 125.364 23.8588C129.045 28.6798 132.954 33.3256 136.674 38.1166C140.477 43.0129 144.161 48.0005 147.922 52.9288C151.865 58.0944 155.85 63.2271 159.791 68.3945C162.926 72.5036 165.992 76.6658 169.14 80.7643C172.92 85.6855 176.778 90.5464 180.559 95.4667C184.52 100.619 188.417 105.821 192.367 110.983C196.225 116.024 200.145 121.018 203.982 126.075C206.826 129.821 209.582 133.634 212.492 137.571C177.381 183.427 142.374 229.146 107.298 274.954C104.552 275.369 103.485 272.887 102.239 271.3C94.3975 261.313 86.7364 251.183 79.0558 241.07C71.7347 231.429 64.4881 221.731 57.1617 212.094C49.3854 201.866 41.5553 191.681 33.7454 181.479C26.9219 172.566 20.1292 163.63 13.2551 154.756C9.54159 149.963 5.66595 145.294 1.91256 140.53C1.19697 139.622 0.710022 138.533 0 137.328Z" fill="white"/>
</svg>
